<?xml version="1.0" standalone="no"?>
<!DOCTYPE svg PUBLIC "-//W3C//DTD SVG 20010904//EN"
 "http://www.w3.org/TR/2001/REC-SVG-20010904/DTD/svg10.dtd">
<svg version="1.0" xmlns="http://www.w3.org/2000/svg"
 width="900.000000pt" height="900.000000pt" viewBox="0 0 900.000000 900.000000"
 preserveAspectRatio="xMidYMid meet">
<metadata>
Created by potrace 1.10, written by Peter Selinger 2001-2011
</metadata>
<g transform="translate(0.000000,900.000000) scale(0.100000,-0.100000)"
fill="#000000" stroke="none">
<path d="M3350 8829 c-457 -7 -533 -12 -610 -39 -225 -82 -352 -232 -386 -456
-11 -76 -14 -730 -16 -3900 -3 -3565 -2 -3813 14 -3864 27 -88 44 -130 56
-142 7 -7 12 -18 12 -25 0 -24 143 -157 195 -182 28 -12 57 -27 67 -32 9 -4
54 -17 100 -28 80 -19 132 -20 1718 -23 1582 -3 1637 -2 1690 16 30 10 78 28
105 39 169 67 286 208 332 397 17 71 18 259 21 3895 3 3574 2 3825 -14 3895
-38 165 -114 278 -244 360 -61 40 -93 52 -195 80 -67 19 -115 19 -1220 18
-632 -1 -1364 -5 -1625 -9z m35 -175 c23 -9 42 -51 50 -112 9 -67 54 -128 115
-159 l45 -23 895 0 c876 0 896 1 939 21 80 36 131 119 131 212 0 11 10 31 22
44 21 23 22 23 294 23 288 0 277 1 383 -49 81 -39 153 -122 191 -223 20 -53
20 -72 20 -3858 -1 -3661 -1 -3808 -19 -3886 -32 -144 -101 -236 -221 -295
l-65 -32 -1663 2 c-1631 2 -1663 3 -1719 22 -128 46 -217 141 -257 275 -18 58
-18 218 -13 3865 6 4149 1 3853 61 3964 33 61 111 136 168 164 99 46 122 49
380 50 135 1 254 -2 263 -5z m1594 -4 c30 -16 46 -65 31 -100 -25 -60 -89 -77
-136 -37 -21 18 -27 32 -27 65 0 56 24 82 75 82 22 0 47 -4 57 -10z m-268 -39
c21 -16 22 -22 11 -45 l-12 -26 -227 2 -228 3 -3 30 c-6 51 10 55 234 55 183
0 204 -2 225 -19z"/>
</g>
</svg>
